<svg width="28" height="20" viewBox="0 0 28 20" fill="none" xmlns="http://www.w3.org/2000/svg">
<path d="M8.14464 0.869507C8.9514 0.869507 9.69691 0.933102 10.3812 1.12389C11.0637 1.25107 11.6254 1.51635 12.1242 1.83433C12.623 2.1523 12.994 2.60836 13.246 3.19162C13.491 3.77305 13.624 4.4835 13.624 5.25753C13.624 6.15876 13.4385 6.9328 13.001 7.51423C12.6247 8.09567 12.0105 8.61533 11.2562 8.99871C12.3167 9.3185 13.1235 9.89994 13.6152 10.674C14.107 11.448 14.422 12.4128 14.422 13.5139C14.422 14.4152 14.2382 15.1892 13.9232 15.836C13.6101 16.4879 13.1384 17.0435 12.5547 17.4477C11.9947 17.8384 11.3104 18.1563 10.5649 18.3489C9.83474 18.5497 9.08366 18.6571 8.32839 18.6687L0 18.6814V0.869507H8.14464ZM7.64588 8.09749C8.32839 8.09749 8.8884 7.9067 9.32066 7.57964C9.75116 7.25259 9.94192 6.6766 9.94192 5.96798C9.94192 5.57551 9.88067 5.19394 9.75816 4.93774C9.62445 4.6789 9.43229 4.45757 9.19815 4.29271C8.94465 4.14817 8.67318 4.04056 8.39139 3.97292C8.08339 3.90933 7.76838 3.90933 7.39912 3.90933H3.79756V8.10657C3.79756 8.09749 7.64588 8.09749 7.64588 8.09749ZM7.82963 15.7161C8.20589 15.7161 8.57514 15.6525 8.89015 15.5889C9.19815 15.5253 9.51316 15.3963 9.75816 15.1965C10.0032 14.9966 10.1957 14.8058 10.3812 14.4878C10.5037 14.168 10.6262 13.7774 10.6262 13.3231C10.6262 12.4219 10.3812 11.7751 9.88067 11.3208C9.38191 10.9302 8.69765 10.7394 7.89088 10.7394H3.79756V15.707H7.83138L7.82963 15.7161ZM19.8313 15.6525C20.3307 16.1698 21.0762 16.4278 22.0679 16.4266C22.7504 16.4266 23.3734 16.234 23.8739 15.9069C24.3709 15.5193 24.6801 15.1317 24.8014 14.744H27.8465C27.346 16.2903 26.6004 17.3914 25.6099 18.1018C24.6194 18.7469 23.4346 19.1302 22.0049 19.1302C21.0905 19.136 20.1834 18.9602 19.3326 18.6124C18.5655 18.3185 17.8815 17.8301 17.3428 17.1915C16.7667 16.5975 16.339 15.8666 16.0968 15.062C15.7905 14.2244 15.6593 13.3231 15.6593 12.2856C15.6593 11.3208 15.7818 10.4105 16.0968 9.57288C16.4118 8.73707 16.8423 8.02481 17.404 7.37978C17.9641 6.79834 18.6483 6.27868 19.3938 5.95889C20.2249 5.61448 21.1118 5.43869 22.0066 5.44105C23.0671 5.44105 23.9964 5.63183 24.8032 6.08608C25.6082 6.54033 26.2329 7.05272 26.7317 7.82676C27.2305 8.53538 27.5997 9.37301 27.8535 10.2761C27.976 11.1773 28.0372 12.0858 27.976 13.116H18.9633C18.9633 14.1699 19.3308 15.1329 19.8313 15.6525ZM23.7514 8.87152C23.3139 8.41728 22.6279 8.16108 21.8211 8.16108C21.2611 8.16108 20.8306 8.28827 20.4543 8.48087C20.0781 8.67347 19.8313 8.93512 19.5863 9.1895C19.3578 9.43908 19.2056 9.75329 19.1488 10.0925C19.0858 10.4105 19.0263 10.674 19.0263 10.9284H24.6194C24.4969 9.97262 24.1837 9.32577 23.7514 8.87152ZM18.2791 2.09779H25.2407V3.83665H18.2791V2.09779Z" fill="#111111"/>
</svg>
