<svg width="41" height="40" viewBox="0 0 41 40" fill="none" xmlns="http://www.w3.org/2000/svg">
<path d="M35.7814 0H5.21863C2.6126 0 0.5 2.1126 0.5 4.71863V35.2781C0.5 37.8842 2.6126 39.9968 5.21863 39.9968H35.7814C38.3874 39.9968 40.5 37.8842 40.5 35.2781V4.71863C40.5 2.1126 38.3874 0 35.7814 0Z" fill="url(#paint0_linear_289_53)"/>
<path d="M16.8226 18.7969C16.8226 18.7969 20.2184 18.5446 20.2184 14.5634C20.2184 10.5822 17.4403 8.63843 13.9215 8.63843H2.34326V30.8894H13.9215C13.9215 30.8894 20.9882 31.1126 20.9882 24.3208C20.9882 24.3208 21.2986 18.7969 16.8226 18.7969ZM7.44352 12.5938H13.9118C13.9118 12.5938 15.4869 12.5938 15.4869 14.9094C15.4869 17.2251 14.5619 17.5615 13.5108 17.5615H7.44675L7.44352 12.5938ZM13.6208 26.934H7.44675V20.9897H13.9151C13.9151 20.9897 16.2598 20.9573 16.2598 24.0459C16.2663 26.6171 14.5522 26.9082 13.624 26.934H13.6208ZM30.4157 14.3014C21.8581 14.3014 21.8678 22.8493 21.8678 22.8493C21.8678 22.8493 21.2792 31.3551 30.4157 31.3551C30.4157 31.3551 38.0289 31.7885 38.0289 25.4399H34.1156C34.1156 25.4399 34.2449 27.8331 30.558 27.8331C30.558 27.8331 26.6415 28.0951 26.6415 23.9521H38.1712C38.1712 23.9521 39.4228 14.3014 30.4157 14.3014ZM33.8957 20.9897H26.5865C26.5865 20.9897 27.0651 17.5615 30.503 17.5615C33.9409 17.5615 33.8957 20.9897 33.8957 20.9897ZM25.6292 9.95149H34.8077V12.6908H25.6292V9.95149Z" fill="white"/>
<defs>
<linearGradient id="paint0_linear_289_53" x1="20.5" y1="0" x2="20.5" y2="40" gradientUnits="userSpaceOnUse">
<stop stop-color="#005CFF"/>
<stop offset="1" stop-color="#0047AD"/>
</linearGradient>
</defs>
</svg>
