<svg width="50" height="50" viewBox="0 0 50 50" fill="none" xmlns="http://www.w3.org/2000/svg">
<path d="M38.2812 0H11.7188C5.24666 0 0 5.24666 0 11.7188V38.2812C0 44.7533 5.24666 50 11.7188 50H38.2812C44.7533 50 50 44.7533 50 38.2812V11.7188C50 5.24666 44.7533 0 38.2812 0Z" fill="#242938"/>
<path d="M44.5312 35.7298C43.9627 35.9453 43.3349 35.9449 42.7666 35.7288C42.1983 35.5127 41.7288 35.0958 41.4471 34.557C39.677 31.9072 37.7223 29.3769 35.8436 26.7923L35.0289 25.7064C32.7918 28.7037 30.5547 31.5814 28.5131 34.5679C28.2472 35.0828 27.8031 35.4835 27.2637 35.6953C26.7243 35.9071 26.1263 35.9155 25.5811 35.7191L33.9756 24.4576L26.1674 14.2818C26.7295 14.0789 27.3443 14.0761 27.9082 14.2739C28.4721 14.4718 28.9504 14.8581 29.2625 15.3677C31.076 18.0177 33.0852 20.548 35.0832 23.2304C37.0924 20.5697 39.0797 18.0285 40.9367 15.4003C41.204 14.8937 41.6483 14.5031 42.185 14.3029C42.7217 14.1027 43.3132 14.1068 43.8471 14.3144L40.8172 18.3326C39.4598 20.1244 38.124 21.9271 36.7123 23.6755C36.5985 23.7774 36.5075 23.9021 36.4452 24.0415C36.3829 24.1809 36.3507 24.3319 36.3507 24.4846C36.3507 24.6373 36.3829 24.7883 36.4452 24.9277C36.5075 25.0671 36.5985 25.1919 36.7123 25.2937C39.3078 28.7363 41.8814 32.1896 44.5312 35.7298ZM5.46875 24.3164C5.69687 23.2304 5.83789 22.0466 6.15293 20.939C8.03164 14.2603 15.6877 11.48 20.9547 15.6177C24.0389 18.0396 24.81 21.4712 24.658 25.3373H7.28242C7 32.2441 11.9846 36.4142 18.3592 34.2857C19.3933 33.9158 20.319 33.2942 21.0527 32.4771C21.7865 31.6599 22.3051 30.6728 22.5619 29.605C22.8986 28.5191 23.4416 28.3345 24.4732 28.6494C24.3033 29.9714 23.8359 31.2378 23.1061 32.3532C22.3763 33.4686 21.4031 34.404 20.2598 35.0892C18.3707 36.1225 16.2032 36.5318 14.0674 36.2588C11.9315 35.9857 9.93675 35.0442 8.36836 33.5689C6.8167 31.8242 5.87848 29.6197 5.69687 27.292C5.69687 26.9228 5.55566 26.5535 5.47969 26.206C5.4725 25.5762 5.46886 24.9463 5.46875 24.3164ZM7.3041 23.8494H23.0182C22.9203 18.8431 19.7602 15.292 15.5467 15.2595C10.8553 15.1943 7.49961 18.6693 7.29316 23.8277L7.3041 23.8494Z" fill="white"/>
</svg>
