<svg width="34" height="50" viewBox="0 0 34 50" fill="none" xmlns="http://www.w3.org/2000/svg">
<path d="M8.33333 50C12.9457 50 16.6667 46.2791 16.6667 41.6667V33.3334H8.33333C3.72093 33.3334 0 37.0543 0 41.6667C0 46.2791 3.72093 50 8.33333 50Z" fill="#0ACF83"/>
<path d="M0 25.0001C0 20.3877 3.72093 16.6667 8.33333 16.6667H16.6667V33.3334H8.33333C3.72093 33.3334 0 29.6125 0 25.0001Z" fill="#A259FF"/>
<path d="M0 8.33333C0 3.72093 3.72093 0 8.33333 0H16.6667V16.6667H8.33333C3.72093 16.6667 0 12.9457 0 8.33333Z" fill="#F24E1E"/>
<path d="M16.6667 0H25C29.6124 0 33.3334 3.72093 33.3334 8.33333C33.3334 12.9457 29.6124 16.6667 25 16.6667H16.6667V0Z" fill="#FF7262"/>
<path d="M33.3334 25.0001C33.3334 29.6125 29.6124 33.3334 25 33.3334C20.3876 33.3334 16.6667 29.6125 16.6667 25.0001C16.6667 20.3877 20.3876 16.6667 25 16.6667C29.6124 16.6667 33.3334 20.3877 33.3334 25.0001Z" fill="#1ABCFE"/>
</svg>
