<svg width="23" height="23" viewBox="0 0 23 23" fill="none" xmlns="http://www.w3.org/2000/svg">
<path d="M11.125 0.125C8.94941 0.125 6.82267 0.770139 5.01373 1.97883C3.20479 3.18753 1.79489 4.90549 0.96233 6.91548C0.129766 8.92547 -0.0880705 11.1372 0.336367 13.271C0.760804 15.4048 1.80845 17.3648 3.34683 18.9032C4.88521 20.4415 6.84522 21.4892 8.97901 21.9136C11.1128 22.3381 13.3245 22.1202 15.3345 21.2877C17.3445 20.4551 19.0625 19.0452 20.2712 17.2363C21.4799 15.4273 22.125 13.3006 22.125 11.125C22.1216 8.20865 20.9616 5.41271 18.8995 3.35053C16.8373 1.28836 14.0414 0.128359 11.125 0.125ZM20.4327 11.125C20.4334 11.9834 20.3149 12.8377 20.0805 13.6635H16.0073C16.2668 11.9811 16.2668 10.2689 16.0073 8.58654H20.0805C20.3149 9.41229 20.4334 10.2666 20.4327 11.125ZM8.375 15.3558H13.875C13.3332 17.1312 12.3925 18.7592 11.125 20.1154C9.85797 18.7589 8.9174 17.131 8.375 15.3558ZM7.9625 13.6635C7.672 11.9836 7.672 10.2664 7.9625 8.58654H14.296C14.5865 10.2664 14.5865 11.9836 14.296 13.6635H7.9625ZM1.81731 11.125C1.81658 10.2666 1.93511 9.41229 2.16952 8.58654H6.2427C5.98321 10.2689 5.98321 11.9811 6.2427 13.6635H2.16952C1.93511 12.8377 1.81658 11.9834 1.81731 11.125ZM13.875 6.89423H8.375C8.91685 5.1188 9.85748 3.49077 11.125 2.13461C12.392 3.49113 13.3326 5.11904 13.875 6.89423ZM19.4099 6.89423H15.6424C15.1676 5.15211 14.3673 3.51562 13.2838 2.07115C14.5929 2.38564 15.8185 2.97947 16.8766 3.81196C17.9348 4.64445 18.8004 5.6959 19.4141 6.89423H19.4099ZM8.96625 2.07115C7.88275 3.51562 7.08245 5.15211 6.6076 6.89423H2.83587C3.44962 5.6959 4.31523 4.64445 5.37337 3.81196C6.4315 2.97947 7.65714 2.38564 8.96625 2.07115ZM2.83587 15.3558H6.6076C7.08245 17.0979 7.88275 18.7344 8.96625 20.1788C7.65714 19.8644 6.4315 19.2705 5.37337 18.438C4.31523 17.6055 3.44962 16.5541 2.83587 15.3558ZM13.2838 20.1788C14.3673 18.7344 15.1676 17.0979 15.6424 15.3558H19.4141C18.8004 16.5541 17.9348 17.6055 16.8766 18.438C15.8185 19.2705 14.5929 19.8644 13.2838 20.1788Z" fill="#E83F6F"/>
</svg>
