<svg width="29" height="33" viewBox="0 0 29 33" fill="none" xmlns="http://www.w3.org/2000/svg">
<path d="M6.85909 6.99335C6.49067 6.05315 6.50541 4.97884 6.66898 3.99591C7.7948 4.3342 8.85231 4.86795 9.79316 5.57273C10.2058 5.8881 10.7466 5.98978 11.2506 5.83799C12.5437 5.45016 13.8869 5.2555 15.2369 5.26031C16.6531 5.26031 17.9985 5.46663 19.2202 5.83652C19.7242 5.98978 20.265 5.88662 20.6762 5.57126C21.6166 4.86663 22.6736 4.33289 23.7989 3.99443C23.9625 4.97737 23.9757 6.05167 23.6103 6.9904C23.3892 7.55629 23.4997 8.20765 23.9168 8.67038C24.9837 9.85373 25.5525 11.2139 25.5525 12.6286C25.5525 15.744 22.6494 18.7989 17.9867 19.7288C16.8196 19.9616 16.3642 21.4309 17.2573 22.2723C17.8305 22.8117 18.1842 23.5721 18.1842 24.418V28.839C18.1842 29.2298 18.3395 29.6047 18.6158 29.881C18.8922 30.1574 19.267 30.3126 19.6579 30.3126C20.0487 30.3126 20.4236 30.1574 20.6999 29.881C20.9763 29.6047 21.1315 29.2298 21.1315 28.839V24.418C21.1315 23.578 20.9547 22.7793 20.6393 22.0557C25.0854 20.5128 28.4999 17.0393 28.4999 12.6286C28.4999 10.6436 27.7866 8.81922 26.6033 7.29103C26.9127 6.08262 26.8847 4.86537 26.7668 3.93107C26.6622 3.09402 26.5163 1.99762 25.9269 1.34331C25.05 0.372163 23.5985 0.943945 22.5669 1.29615C21.4598 1.66931 20.4068 2.18712 19.4354 2.83613C18.0635 2.48551 16.6528 2.30974 15.2369 2.31298C13.7721 2.31298 12.3588 2.49719 11.0355 2.83761C10.064 2.18859 9.01103 1.67079 7.90392 1.29763C6.87235 0.943945 5.41931 0.372163 4.54248 1.34331C3.94123 2.00941 3.81597 3.01887 3.70839 3.87654L3.70102 3.93254C3.58313 4.86832 3.5566 6.08704 3.86607 7.29692C2.68714 8.82364 1.97388 10.6451 1.97388 12.6286C1.97388 17.0379 5.38837 20.5128 9.83442 22.0557C9.51317 22.7917 9.34567 23.5855 9.34221 24.3885L9.09464 24.4386C8.03802 24.5845 7.36161 24.4533 6.90182 24.2588C5.78184 23.7843 5.20416 22.5892 4.49975 21.6755C4.06059 21.1081 3.42102 20.3993 2.43956 20.0721C2.25591 20.011 2.062 19.9866 1.86893 20.0004C1.67585 20.0142 1.48738 20.0658 1.31427 20.1525C0.964668 20.3274 0.698879 20.6341 0.575373 21.005C0.451867 21.3759 0.480763 21.7807 0.655702 22.1303C0.830642 22.4799 1.1373 22.7456 1.5082 22.8692C2.33051 23.1433 2.89934 24.5521 3.42102 25.1769C3.9707 25.8371 4.70164 26.5268 5.74942 26.9718C6.75446 27.3992 7.93486 27.551 9.34221 27.3786V28.839C9.34221 29.2298 9.49748 29.6047 9.77384 29.881C10.0502 30.1574 10.425 30.3126 10.8159 30.3126C11.2067 30.3126 11.5816 30.1574 11.8579 29.881C12.1343 29.6047 12.2895 29.2298 12.2895 28.839V24.418C12.2895 23.5721 12.6432 22.8117 13.2165 22.2723C14.111 21.4294 13.6542 19.9616 12.487 19.7288C7.82286 18.7989 4.92122 15.744 4.92122 12.6286C4.92122 11.2169 5.48858 9.85668 6.55404 8.67333C6.97108 8.21059 7.08014 7.55923 6.85909 6.99335Z" fill="#111111"/>
</svg>
