<svg width="28" height="24" viewBox="0 0 28 24" fill="none" xmlns="http://www.w3.org/2000/svg">
<path d="M23.4204 1.10496L21.629 2.65135L14.0017 8.9142L6.37448 2.58949L4.58312 1.04311C4.16111 0.657354 3.64595 0.416883 3.10146 0.351487C2.55697 0.28609 2.00708 0.398642 1.51991 0.675197C1.03275 0.951753 0.629719 1.38016 0.360755 1.90734C0.0917904 2.43452 -0.0312887 3.03731 0.00676571 3.64103V21.5636C0.00676571 22.1214 0.207293 22.6563 0.564234 23.0507C0.921175 23.4451 1.40529 23.6667 1.91008 23.6667H6.37448V11.7286L14.0017 18.0533L21.629 11.7286V23.6667H26.0934C26.5982 23.6667 27.0823 23.4451 27.4392 23.0507C27.7962 22.6563 27.9967 22.1214 27.9967 21.5636V3.64103C28.023 3.04252 27.8913 2.44847 27.6178 1.93108C27.3442 1.41368 26.9406 0.995241 26.4558 0.726609C25.9711 0.457978 25.4261 0.350728 24.8873 0.417896C24.3484 0.485064 23.8388 0.723758 23.4204 1.10496Z" fill="#111111"/>
</svg>
