<svg width="50" height="50" viewBox="0 0 50 50" fill="none" xmlns="http://www.w3.org/2000/svg">
<path d="M38.2812 0H11.7188C5.24666 0 0 5.24666 0 11.7188V38.2812C0 44.7533 5.24666 50 11.7188 50H38.2812C44.7533 50 50 44.7533 50 38.2812V11.7188C50 5.24666 44.7533 0 38.2812 0Z" fill="#E14E1D"/>
<path d="M9.36902 7.41589L11.0507 26.2817H32.6737L31.9481 34.3735L24.986 36.2559L18.037 34.3762L17.5723 29.1805H11.3104L12.2059 39.1964L24.9846 42.7456L37.7796 39.1964L39.495 20.0438H16.7565L16.1856 13.6552H40.0602L40.619 7.41589H9.36902Z" fill="white"/>
<path d="M24.994 7.41589H9.36902L11.0507 26.2817H24.994V20.0438H16.7565L16.1856 13.6552H24.994V7.41589ZM24.994 36.2532L24.986 36.2559L18.037 34.3762L17.5723 29.1805H11.3104L12.2059 39.1964L24.9846 42.7456L24.9942 42.7428L24.994 36.2532Z" fill="#EBEBEB"/>
</svg>
