<svg width="32" height="32" viewBox="0 0 32 32" fill="none" xmlns="http://www.w3.org/2000/svg">
<path d="M23 2H9C5.13401 2 2 5.13401 2 9V23C2 26.866 5.13401 30 9 30H23C26.866 30 30 26.866 30 23V9C30 5.13401 26.866 2 23 2Z" stroke="#111111" stroke-width="2.8" stroke-linecap="round" stroke-linejoin="round"/>
<path d="M23.6999 8.29993H23.7139M21.5999 15.1179C21.7727 16.2831 21.5737 17.473 21.0312 18.5185C20.4887 19.5641 19.6303 20.4119 18.5782 20.9415C17.5261 21.471 16.3337 21.6554 15.1708 21.4682C14.0079 21.2811 12.9336 20.732 12.1007 19.8992C11.2678 19.0663 10.7187 17.992 10.5316 16.829C10.3445 15.6661 10.5288 14.4738 11.0584 13.4217C11.5879 12.3695 12.4358 11.5112 13.4813 10.9687C14.5268 10.4262 15.7168 10.2272 16.8819 10.3999C18.0704 10.5762 19.1707 11.13 20.0203 11.9796C20.8699 12.8291 21.4237 13.9294 21.5999 15.1179Z" stroke="#111111" stroke-width="2.8" stroke-linecap="round" stroke-linejoin="round"/>
</svg>
