<svg width="50" height="50" viewBox="0 0 50 50" fill="none" xmlns="http://www.w3.org/2000/svg">
<path d="M38.2812 0H11.7188C5.24666 0 0 5.24666 0 11.7188V38.2812C0 44.7533 5.24666 50 11.7188 50H38.2812C44.7533 50 50 44.7533 50 38.2812V11.7188C50 5.24666 44.7533 0 38.2812 0Z" fill="#F0DB4F"/>
<path d="M13.1469 41.7836L16.973 39.468C17.7113 40.7768 18.3828 41.8842 19.9935 41.8842C21.5375 41.8842 22.5109 41.2803 22.5109 38.9311V22.9549H27.2098V38.9975C27.2098 43.8641 24.357 46.0793 20.1949 46.0793C16.4361 46.0793 14.2543 44.1326 13.1467 41.7832M29.7619 41.2801L33.5877 39.0651C34.5949 40.7098 35.9039 41.918 38.2195 41.918C40.1666 41.918 41.408 40.9446 41.408 39.602C41.408 37.991 40.1326 37.4203 37.9846 36.4809L36.8101 35.9772C33.4201 34.5342 31.1713 32.7217 31.1713 28.8955C31.1713 25.3713 33.8564 22.6862 38.0519 22.6862C41.0391 22.6862 43.1871 23.7268 44.7308 26.4453L41.0725 28.7948C40.2668 27.3516 39.3945 26.7811 38.0519 26.7811C36.6758 26.7811 35.8031 27.6537 35.8031 28.7948C35.8031 30.2043 36.6758 30.775 38.6894 31.6479L39.864 32.1512C43.858 33.8631 46.1068 35.608 46.1068 39.5348C46.1068 43.7641 42.7842 46.0797 38.3203 46.0797C33.9572 46.0797 31.1379 43.9989 29.7619 41.2801Z" fill="#323330"/>
</svg>
