<svg width="28" height="28" viewBox="0 0 28 28" fill="none" xmlns="http://www.w3.org/2000/svg">
<path d="M25.7495 0H2.2505C1.008 0 0 1.008 0 2.2505V25.7495C0 26.992 1.008 28 2.2505 28H25.7495C26.992 28 28 26.992 28 25.7495V2.2505C28 1.008 26.992 0 25.7495 0ZM25.7495 25.76C10.0765 25.7565 2.24 25.753 2.24 25.7495C2.2435 10.0765 2.247 2.24 2.2505 2.24C17.9235 2.2435 25.76 2.247 25.76 2.2505C25.7565 17.9235 25.753 25.76 25.7495 25.76ZM4.151 10.4965H8.3055V23.8595H4.151V10.4965ZM6.23 8.6695C7.5565 8.6695 8.638 7.5915 8.638 6.2615C8.638 5.94528 8.57572 5.63215 8.4547 5.34C8.33369 5.04785 8.15632 4.78239 7.93271 4.55879C7.70911 4.33518 7.44365 4.15781 7.1515 4.0368C6.85935 3.91578 6.54622 3.8535 6.23 3.8535C5.91378 3.8535 5.60065 3.91578 5.3085 4.0368C5.01635 4.15781 4.75089 4.33518 4.52729 4.55879C4.30368 4.78239 4.12631 5.04785 4.0053 5.34C3.88428 5.63215 3.822 5.94528 3.822 6.2615C3.8185 7.5915 4.8965 8.6695 6.23 8.6695ZM15.0605 17.248C15.0605 15.505 15.393 13.818 17.5525 13.818C19.6805 13.818 19.712 15.8095 19.712 17.36V23.8595H23.863V16.5305C23.863 12.9325 23.086 10.164 18.8825 10.164C16.863 10.164 15.5085 11.2735 14.952 12.3235H14.896V10.4965H10.9095V23.8595H15.0605V17.248Z" fill="#111111"/>
</svg>
