<svg width="40" height="40" viewBox="0 0 40 40" fill="none" xmlns="http://www.w3.org/2000/svg">
<rect width="40" height="40.0003" fill="#0076B2"/>
<path d="M6.07223 15.1082H12.0099V34.2132H6.07223V15.1082ZM9.04272 5.60004C9.72375 5.60004 10.3895 5.80203 10.9557 6.18045C11.5219 6.55888 11.9631 7.09674 12.2236 7.72598C12.4841 8.35523 12.5521 9.0476 12.419 9.71549C12.2859 10.3834 11.9576 10.9968 11.4759 11.4781C10.9941 11.9595 10.3804 12.2871 9.71233 12.4195C9.04431 12.552 8.35201 12.4834 7.72301 12.2223C7.09401 11.9612 6.55658 11.5195 6.17869 10.9529C5.80081 10.3863 5.59945 9.72041 5.6001 9.03938C5.60097 8.12691 5.96406 7.25211 6.60958 6.6072C7.2551 5.96229 8.13025 5.60004 9.04272 5.60004ZM15.7345 15.1082H21.4263V17.7312H21.505C22.2985 16.2295 24.2329 14.6459 27.1214 14.6459C33.1345 14.6328 34.2493 18.5902 34.2493 23.7213V34.2132H28.3116V24.9181C28.3116 22.705 28.2722 19.8558 25.2263 19.8558C22.1804 19.8558 21.6624 22.2689 21.6624 24.7738V34.2132H15.7345V15.1082Z" fill="white"/>
</svg>
