<svg width="16" height="25" viewBox="0 0 16 25" fill="none" xmlns="http://www.w3.org/2000/svg">
<path fill-rule="evenodd" clip-rule="evenodd" d="M3.87201 2.73587H12.608C12.8011 2.73587 12.9863 2.81371 13.1228 2.95228C13.2593 3.09084 13.336 3.27877 13.336 3.47473V21.2074C13.336 21.4033 13.2593 21.5913 13.1228 21.7298C12.9863 21.8684 12.8011 21.9462 12.608 21.9462H3.87201C3.67894 21.9462 3.49377 21.8684 3.35724 21.7298C3.22071 21.5913 3.14401 21.4033 3.14401 21.2074V3.47473C3.14401 3.27877 3.22071 3.09084 3.35724 2.95228C3.49377 2.81371 3.67894 2.73587 3.87201 2.73587ZM0.960014 3.47473C0.960014 2.6909 1.26681 1.93917 1.81292 1.38492C2.35903 0.830663 3.0997 0.519287 3.87201 0.519287L12.608 0.519287C13.3803 0.519287 14.121 0.830663 14.6671 1.38492C15.2132 1.93917 15.52 2.6909 15.52 3.47473V21.2074C15.52 21.9912 15.2132 22.7429 14.6671 23.2972C14.121 23.8514 13.3803 24.1628 12.608 24.1628H3.87201C3.0997 24.1628 2.35903 23.8514 1.81292 23.2972C1.26681 22.7429 0.960014 21.9912 0.960014 21.2074V3.47473ZM8.24002 19.7297C8.62617 19.7297 8.99651 19.574 9.26956 19.2968C9.54261 19.0197 9.69601 18.6438 9.69601 18.2519C9.69601 17.86 9.54261 17.4842 9.26956 17.207C8.99651 16.9299 8.62617 16.7742 8.24002 16.7742C7.85386 16.7742 7.48352 16.9299 7.21047 17.207C6.93741 17.4842 6.78401 17.86 6.78401 18.2519C6.78401 18.6438 6.93741 19.0197 7.21047 19.2968C7.48352 19.574 7.85386 19.7297 8.24002 19.7297Z" fill="#E83F6F"/>
</svg>
