<svg width="50" height="50" viewBox="0 0 50 50" fill="none" xmlns="http://www.w3.org/2000/svg">
<path d="M38.2812 0H11.7188C5.24666 0 0 5.24666 0 11.7188V38.2812C0 44.7533 5.24666 50 11.7188 50H38.2812C44.7533 50 50 44.7533 50 38.2812V11.7188C50 5.24666 44.7533 0 38.2812 0Z" fill="#023430"/>
<path d="M33.4322 21.0139C31.3742 11.9355 27.0851 9.51875 25.991 7.81035C25.5396 7.05787 25.1399 6.27552 24.7947 5.46875C24.7369 6.27539 24.6306 6.7832 23.9451 7.39492C22.5687 8.62207 16.723 13.3857 16.231 23.7008C15.7726 33.3184 23.3013 39.2486 24.2959 39.8617C25.0607 40.2381 25.9922 39.8697 26.4467 39.5242C30.0758 37.0336 35.0343 30.3934 33.4361 21.0139" fill="#10AA50"/>
<path d="M25.1064 34.7405C24.917 37.1209 24.7812 38.5042 24.3 39.8645C24.3 39.8645 24.6158 42.1307 24.8377 44.5313H25.6226C25.8101 42.8408 26.096 41.1627 26.4789 39.5055C25.4627 39.0055 25.1455 36.8293 25.1064 34.7405Z" fill="#B8C4C2"/>
<path d="M26.4776 39.5069C25.4506 39.0325 25.1535 36.8104 25.1078 34.7405C25.3617 31.3258 25.4357 27.9002 25.3297 24.4778C25.2758 22.6821 25.3551 7.84536 24.8873 5.6731C25.2071 6.40892 25.5759 7.12249 25.991 7.80903C27.0852 9.5188 31.3756 11.9356 33.4323 21.0139C35.0344 30.3774 30.1028 37 26.4776 39.5069Z" fill="#12924F"/>
</svg>
