<svg width="12" height="24" viewBox="0 0 12 24" fill="none" xmlns="http://www.w3.org/2000/svg">
<path d="M7.68187 2.67138C6.67596 1.47789 5.80973 0.265696 5.63277 0.0139803C5.62857 0.00956272 5.62351 0.00604561 5.6179 0.0036424C5.6123 0.0012392 5.60626 0 5.60016 0C5.59406 0 5.58802 0.0012392 5.58242 0.0036424C5.57681 0.00604561 5.57175 0.00956272 5.56755 0.0139803C5.39059 0.26574 4.52436 1.47789 3.51841 2.67138C-5.11577 13.6832 4.87832 21.1147 4.87832 21.1147L4.96213 21.1706C5.03662 22.3175 5.22294 23.9679 5.22294 23.9679H5.96807C5.96807 23.9679 6.1543 22.3268 6.22884 21.1707L6.31269 21.1053C6.322 21.1147 16.3161 13.6833 7.68187 2.67138ZM5.59548 20.9468C5.59548 20.9468 5.1484 20.5645 5.02731 20.3688V20.3501L5.56755 8.35916C5.56755 8.32187 5.62346 8.32187 5.62346 8.35916L6.16366 20.3501V20.3688C6.04257 20.5645 5.59548 20.9468 5.59548 20.9468" fill="#01EC64"/>
</svg>
