<svg width="50" height="50" viewBox="0 0 50 50" fill="none" xmlns="http://www.w3.org/2000/svg">
<path d="M38.2812 0H11.7188C5.24666 0 0 5.24666 0 11.7188V38.2812C0 44.7533 5.24666 50 11.7188 50H38.2812C44.7533 50 50 44.7533 50 38.2812V11.7188C50 5.24666 44.7533 0 38.2812 0Z" fill="#242938"/>
<path d="M23.4137 6.07749C24.3744 5.52769 25.6256 5.52515 26.5853 6.07749C31.4139 8.80601 36.2439 11.53 41.0717 14.2601C41.9799 14.7716 42.5871 15.7822 42.5779 16.8285V33.2435C42.5847 34.3332 41.9174 35.3679 40.9594 35.8677C36.1467 38.5812 31.3363 41.2978 26.5244 44.0113C25.5441 44.5718 24.2678 44.5287 23.3178 43.922C21.875 43.0857 20.4297 42.2533 18.9867 41.4177C18.6918 41.2419 18.3594 41.1021 18.1512 40.8162C18.3353 40.5681 18.6644 40.5373 18.9318 40.4289C19.534 40.2373 20.0873 39.9298 20.6404 39.6316C20.7805 39.5359 20.9512 39.5726 21.0853 39.6582C22.3191 40.3656 23.5422 41.0937 24.7801 41.7943C25.0441 41.9468 25.3115 41.7443 25.5373 41.6185C30.2599 38.9492 34.9885 36.2902 39.7105 33.6201C39.8855 33.5359 39.9822 33.3501 39.968 33.1585C39.9713 27.7435 39.9687 22.3277 39.9697 16.9125C39.9896 16.6953 39.8638 16.4953 39.6672 16.4062C34.8713 13.7052 30.0775 11.0003 25.2824 8.29878C25.1993 8.2417 25.1009 8.21106 25.0001 8.21089C24.8993 8.21072 24.8008 8.24101 24.7176 8.2978C19.9223 11.0003 15.1297 13.708 10.3344 16.4085C10.1385 16.4978 10.007 16.6945 10.0303 16.9125C10.0312 22.3277 10.0303 27.7435 10.0303 33.1593C10.0219 33.2529 10.0424 33.3468 10.0891 33.4283C10.1357 33.5098 10.2063 33.575 10.2912 33.6152C11.5707 34.3408 12.8519 35.0613 14.1324 35.7845C14.8539 36.1726 15.7394 36.4035 16.5344 36.106C17.2355 35.8544 17.7271 35.1386 17.7139 34.3941C17.7205 29.0107 17.7105 23.6265 17.7187 18.2437C17.7012 18.0048 17.9279 17.8074 18.1603 17.83C18.7752 17.8257 19.3908 17.8216 20.0056 17.8316C20.2623 17.8257 20.4389 18.0832 20.4072 18.3238C20.4047 23.7414 20.4139 29.1589 20.4031 34.5763C20.4047 36.0203 19.8115 37.5914 18.476 38.2978C16.8308 39.15 14.7973 38.9693 13.1719 38.1521C11.7648 37.4498 10.4219 36.6209 9.03983 35.8685C8.07928 35.3714 7.41522 34.3326 7.42206 33.2437V16.8285C7.4119 15.7605 8.04354 14.7316 8.97967 14.2275C13.7916 11.5121 18.6027 8.79429 23.4137 6.07749Z" fill="#81CD39"/>
<path d="M27.6117 17.4484C29.7103 17.3133 31.957 17.3684 33.8455 18.4023C35.3078 19.1945 36.1184 20.8574 36.1441 22.4818C36.1033 22.7008 35.8742 22.8217 35.665 22.8066C35.0562 22.8059 34.4471 22.815 33.8383 22.8025C33.5799 22.8125 33.4299 22.5744 33.3975 22.3461C33.2225 21.5688 32.7984 20.799 32.067 20.424C30.9439 19.8619 29.642 19.8902 28.4174 19.902C27.5234 19.9492 26.5621 20.0268 25.8047 20.5523C25.2232 20.9506 25.0467 21.7545 25.2541 22.402C25.4498 22.8668 25.9863 23.0168 26.4256 23.1551C28.9547 23.8166 31.6348 23.7506 34.1156 24.6211C35.1428 24.976 36.1475 25.666 36.499 26.7414C36.959 28.1828 36.7574 29.9055 35.7318 31.0625C34.9002 32.0147 33.6891 32.533 32.4811 32.8145C30.874 33.1729 29.2062 33.182 27.5742 33.0229C26.0396 32.8479 24.4426 32.4447 23.258 31.3992C22.2449 30.5195 21.7502 29.1488 21.7992 27.8262C21.8109 27.6027 22.0334 27.4469 22.2475 27.4652C22.8605 27.4604 23.4738 27.4586 24.0869 27.4662C24.332 27.4486 24.5135 27.6604 24.5262 27.8912C24.6391 28.6316 24.9174 29.409 25.5633 29.8479C26.8094 30.652 28.3732 30.5969 29.8002 30.6193C30.9824 30.567 32.3096 30.5512 33.2742 29.7697C33.7832 29.324 33.934 28.5783 33.7965 27.9369C33.6475 27.3953 33.0809 27.143 32.5943 26.9779C30.0977 26.1883 27.3875 26.4748 24.915 25.5816C23.9111 25.227 22.9404 24.5563 22.5549 23.525C22.0168 22.0654 22.2633 20.26 23.3963 19.1422C24.501 18.0299 26.0955 17.6016 27.6117 17.4484Z" fill="#81CD39"/>
</svg>
