<svg width="23" height="23" viewBox="0 0 23 23" fill="none" xmlns="http://www.w3.org/2000/svg">
<path fill-rule="evenodd" clip-rule="evenodd" d="M7.83337 11.5H5.06138C4.79233 11.966 4.37703 12.3302 3.87988 12.5361C3.38274 12.742 2.83154 12.7782 2.31177 12.6389C1.792 12.4996 1.33271 12.1927 1.00513 11.7658C0.677558 11.3389 0.5 10.8159 0.5 10.2778C0.5 9.73965 0.677558 9.21658 1.00513 8.78967C1.33271 8.36276 1.792 8.05588 2.31177 7.9166C2.83154 7.77733 3.38274 7.81346 3.87988 8.01938C4.37703 8.22531 4.79233 8.58952 5.06138 9.05553H7.83337V2.94444C7.83337 2.29613 8.09091 1.67438 8.54933 1.21596C9.00776 0.757538 9.62951 0.5 10.2778 0.5H20.0556C20.7039 0.5 21.3256 0.757538 21.784 1.21596C22.2425 1.67438 22.5 2.29613 22.5 2.94444V20.0555C22.5 20.7038 22.2425 21.3256 21.784 21.784C21.3256 22.2424 20.7039 22.4999 20.0556 22.4999H10.2778C9.62951 22.4999 9.00776 22.2424 8.54933 21.784C8.09091 21.3256 7.83337 20.7038 7.83337 20.0555V11.5ZM10.2778 11.5V20.0555H20.0556V2.94444H10.2778V9.05553H13.0498C13.3189 8.58952 13.7342 8.22531 14.2313 8.01938C14.7284 7.81346 15.2796 7.77733 15.7994 7.9166C16.3192 8.05588 16.7785 8.36276 17.1061 8.78967C17.4336 9.21658 17.6112 9.73965 17.6112 10.2778C17.6112 10.8159 17.4336 11.3389 17.1061 11.7658C16.7785 12.1927 16.3192 12.4996 15.7994 12.6389C15.2796 12.7782 14.7284 12.742 14.2313 12.5361C13.7342 12.3302 13.3189 11.966 13.0498 11.5H10.2778Z" fill="#E83F6F"/>
</svg>
