<svg width="50" height="50" viewBox="0 0 50 50" fill="none" xmlns="http://www.w3.org/2000/svg">
<path d="M38.2812 0H11.7188C5.24666 0 0 5.24666 0 11.7188V38.2812C0 44.7533 5.24666 50 11.7188 50H38.2812C44.7533 50 50 44.7533 50 38.2812V11.7188C50 5.24666 44.7533 0 38.2812 0Z" fill="#242938"/>
<path d="M25.0002 28.7013C27.0127 28.7013 28.6439 27.0699 28.6439 25.0576C28.6439 23.0453 27.0127 21.4138 25.0002 21.4138C22.9879 21.4138 21.3564 23.0453 21.3564 25.0576C21.3564 27.0699 22.9879 28.7013 25.0002 28.7013Z" fill="#00D8FF"/>
<path d="M25.0004 17.649C29.8926 17.649 34.4373 18.351 37.8641 19.5309C41.9928 20.9522 44.5312 23.1067 44.5312 25.0576C44.5312 27.0906 41.841 29.3795 37.4072 30.8485C34.0553 31.959 29.6443 32.5387 25.0004 32.5387C20.2391 32.5387 15.7303 31.9946 12.3404 30.8362C8.05176 29.3703 5.46875 27.052 5.46875 25.0576C5.46875 23.1225 7.89258 20.9846 11.9633 19.5655C15.4027 18.3662 20.0596 17.649 24.9996 17.649H25.0004Z" stroke="#00D8FF" stroke-width="1.74043"/>
<path d="M18.551 21.3746C20.9951 17.1367 23.8734 13.5504 26.6074 11.1715C29.9011 8.30488 33.0359 7.18222 34.7258 8.15664C36.4869 9.17226 37.1258 12.6465 36.1834 17.2211C35.4715 20.6795 33.7695 24.79 31.4494 28.8131C29.0707 32.9377 26.347 36.5717 23.6504 38.9287C20.2381 41.9115 16.939 42.991 15.2115 41.9947C13.5351 41.0287 12.8941 37.8605 13.6984 33.6252C14.3779 30.0465 16.0832 25.6541 18.5502 21.3746H18.551Z" stroke="#00D8FF" stroke-width="1.74043"/>
<path d="M18.557 28.8238C16.1061 24.5906 14.4373 20.3051 13.7408 16.7484C12.9024 12.4631 13.4951 9.18671 15.1836 8.20936C16.9432 7.19061 20.2719 8.37226 23.7645 11.4734C26.4051 13.818 29.1166 17.3447 31.4434 21.3639C33.8289 25.4846 35.6168 29.6594 36.3123 33.1726C37.1924 37.6187 36.4801 41.0158 34.7541 42.0148C33.0795 42.9844 30.0149 41.958 26.7471 39.1459C23.9861 36.7701 21.0322 33.0992 18.557 28.8238Z" stroke="#00D8FF" stroke-width="1.74043"/>
</svg>
