<svg width="26" height="22" viewBox="0 0 26 22" fill="none" xmlns="http://www.w3.org/2000/svg">
<path d="M17.8889 6.11112H22.7778C23.1019 6.11112 23.4128 6.23989 23.642 6.4691C23.8712 6.69831 24 7.00919 24 7.33334V20.7778L19.9263 17.3935C19.7065 17.211 19.4298 17.1111 19.1441 17.1111H9.33333C9.00918 17.1111 8.6983 16.9823 8.46909 16.7531C8.23988 16.5239 8.11111 16.213 8.11111 15.8889V12.2222M17.8889 6.11112V2.44445C17.8889 2.1203 17.7601 1.80942 17.5309 1.58021C17.3017 1.351 16.9908 1.22223 16.6667 1.22223H3.22222C2.89807 1.22223 2.58719 1.351 2.35798 1.58021C2.12877 1.80942 2 2.1203 2 2.44445V15.8889L6.07367 12.5033C6.29367 12.3225 6.56989 12.2222 6.85589 12.2222H8.11111M17.8889 6.11112V11C17.8889 11.3242 17.7601 11.635 17.5309 11.8642C17.3017 12.0935 16.9908 12.2222 16.6667 12.2222H8.11111" stroke="#E83F6F" stroke-width="2.44444" stroke-linecap="round" stroke-linejoin="round"/>
</svg>
