<svg width="28" height="28" viewBox="0 0 28 28" fill="none" xmlns="http://www.w3.org/2000/svg">
<path d="M23.87 4.07407C22.5865 2.77757 21.0576 1.74961 19.3727 1.05015C17.6877 0.35069 15.8804 -0.00627214 14.056 8.33972e-05C6.41202 8.33972e-05 0.182038 6.23006 0.182038 13.874C0.182038 16.324 0.826036 18.704 2.03003 20.804L0.0700378 28L7.42002 26.068C9.45001 27.174 11.732 27.762 14.056 27.762C21.7 27.762 27.93 21.532 27.93 13.888C27.93 10.1781 26.488 6.69206 23.87 4.07407ZM14.056 25.41C11.984 25.41 9.95401 24.85 8.17601 23.8L7.75602 23.548L3.38803 24.696L4.55002 20.44L4.27003 20.006C3.11887 18.1678 2.50763 16.043 2.50603 13.874C2.50603 7.51806 7.68602 2.33808 14.042 2.33808C17.122 2.33808 20.02 3.54207 22.19 5.72607C23.2644 6.79561 24.1159 8.06779 24.6951 9.46885C25.2743 10.8699 25.5696 12.372 25.564 13.888C25.592 20.244 20.412 25.41 14.056 25.41ZM20.384 16.786C20.034 16.618 18.326 15.778 18.018 15.652C17.696 15.54 17.472 15.484 17.234 15.82C16.996 16.17 16.338 16.954 16.142 17.178C15.946 17.416 15.736 17.444 15.386 17.262C15.036 17.094 13.916 16.716 12.6 15.54C11.564 14.616 10.878 13.482 10.668 13.132C10.472 12.782 10.64 12.6 10.822 12.418C10.976 12.264 11.172 12.012 11.34 11.816C11.508 11.62 11.578 11.466 11.69 11.242C11.802 11.004 11.746 10.8081 11.662 10.6401C11.578 10.4721 10.878 8.76406 10.598 8.06406C10.318 7.39206 10.024 7.47606 9.81401 7.46206H9.14201C8.90401 7.46206 8.54001 7.54606 8.21801 7.89606C7.91001 8.24606 7.01402 9.08606 7.01402 10.7941C7.01402 12.502 8.26001 14.154 8.42801 14.378C8.59601 14.616 10.878 18.116 14.35 19.614C15.176 19.978 15.82 20.188 16.324 20.342C17.15 20.608 17.906 20.566 18.508 20.482C19.18 20.384 20.566 19.642 20.846 18.83C21.14 18.018 21.14 17.332 21.042 17.178C20.944 17.024 20.734 16.954 20.384 16.786Z" fill="#111111"/>
</svg>
