<svg width="51" height="51" viewBox="0 0 51 51" fill="none" xmlns="http://www.w3.org/2000/svg">
<path d="M1.56689 24.8937C1.56572 29.1275 2.67197 33.2615 4.77549 36.9053L1.36572 49.3549L14.1063 46.0142C17.6303 47.9326 21.5785 48.9378 25.5907 48.9381H25.6013C38.8464 48.9381 49.6282 38.1601 49.6339 24.9127C49.6364 18.4933 47.1388 12.457 42.6009 7.9156C38.0638 3.37459 32.0296 0.872437 25.6003 0.869507C12.3536 0.869507 1.57256 11.6469 1.56709 24.8937" fill="url(#paint0_linear_289_43)"/>
<path d="M0.708984 24.8859C0.707617 29.2721 1.85352 33.5539 4.03203 37.3281L0.5 50.224L13.6975 46.7637C17.3338 48.7463 21.4279 49.7916 25.5939 49.7932H25.6047C39.325 49.7932 50.4941 38.6275 50.5 24.9059C50.5023 18.2559 47.9148 12.0025 43.2148 7.29844C38.5143 2.59492 32.2643 0.00273438 25.6047 0C11.882 0 0.714453 11.1641 0.708984 24.8859ZM8.56855 36.6781L8.07578 35.8959C6.0043 32.6021 4.91094 28.7959 4.9125 24.8875C4.9168 13.4822 14.1988 4.20313 25.6125 4.20313C31.1398 4.20547 36.3344 6.36016 40.2414 10.2695C44.1482 14.1793 46.298 19.3766 46.2967 24.9043C46.2916 36.3096 37.0094 45.5898 25.6047 45.5898H25.5965C21.883 45.5879 18.241 44.5906 15.0648 42.7061L14.309 42.2578L6.47734 44.3111L8.56855 36.6781Z" fill="url(#paint1_linear_289_43)"/>
<path d="M19.3823 14.482C18.9163 13.4463 18.4259 13.4254 17.9827 13.4072C17.6198 13.3916 17.205 13.3928 16.7905 13.3928C16.3757 13.3928 15.7017 13.5488 15.1319 14.1709C14.5616 14.7936 12.9546 16.2982 12.9546 19.3586C12.9546 22.419 15.1837 25.3768 15.4944 25.7922C15.8056 26.2068 19.7978 32.6881 26.1204 35.1815C31.3751 37.2535 32.4444 36.8414 33.5849 36.7375C34.7255 36.634 37.2653 35.2332 37.7835 33.7807C38.302 32.3283 38.3021 31.0834 38.1466 30.8232C37.9911 30.5641 37.5763 30.4084 36.9542 30.0975C36.3321 29.7865 33.2737 28.2815 32.7036 28.0738C32.1333 27.8664 31.7187 27.7629 31.3038 28.3858C30.889 29.0076 29.6978 30.4084 29.3347 30.8232C28.972 31.2391 28.6089 31.2908 27.987 30.9797C27.3645 30.6676 25.3612 30.0115 22.9845 27.8926C21.1353 26.2438 19.8868 24.2076 19.5239 23.5848C19.161 22.9629 19.4851 22.6258 19.797 22.3158C20.0765 22.0371 20.4192 21.5895 20.7306 21.2264C21.0407 20.8631 21.1442 20.6039 21.3517 20.1891C21.5593 19.7738 21.4554 19.4106 21.3001 19.0994C21.1442 18.7883 19.9354 15.7119 19.3823 14.482Z" fill="white"/>
<defs>
<linearGradient id="paint0_linear_289_43" x1="2414.77" y1="4849.41" x2="2414.77" y2="0.869507" gradientUnits="userSpaceOnUse">
<stop stop-color="#1FAF38"/>
<stop offset="1" stop-color="#60D669"/>
</linearGradient>
<linearGradient id="paint1_linear_289_43" x1="2500.5" y1="5022.4" x2="2500.5" y2="0" gradientUnits="userSpaceOnUse">
<stop stop-color="#F9F9F9"/>
<stop offset="1" stop-color="white"/>
</linearGradient>
</defs>
</svg>
